<?xml version="1.0" encoding="utf-8"?>
<!-- Generator: Adobe Illustrator 26.5.0, SVG Export Plug-In . SVG Version: 6.00 Build 0)  -->
<svg version="1.1" id="Layer_1" xmlns="http://www.w3.org/2000/svg" xmlns:xlink="http://www.w3.org/1999/xlink" x="0px" y="0px"
	 viewBox="0 0 781 1005" style="enable-background:new 0 0 781 1005;" xml:space="preserve">
<style type="text/css">
	.st0{opacity:0.5;}
	.st1{opacity:0.8;fill:#AA7DCE;enable-background:new    ;}
	.st2{opacity:0.8;fill:#44CCFF;enable-background:new    ;}
	.st3{opacity:0.8;fill:#FF9914;enable-background:new    ;}
	.st4{opacity:0.8;fill:#808080;enable-background:new    ;}
	.st5{fill:none;stroke:#000000;stroke-width:4.374000e-04;stroke-linecap:square;stroke-miterlimit:3;}
	.st6{font-family:'Helvetica';}
	.st7{font-size:7.2px;}
	.st8{fill:#FFFFFF;}
	.st9{fill:#44CCFF;}
	.st10{fill:none;stroke:#808080;stroke-width:4.374000e-04;stroke-linecap:square;stroke-miterlimit:3;}
	.st11{fill:#808080;}
	.st12{fill:none;stroke:#595959;stroke-width:4.374000e-04;stroke-linecap:square;stroke-miterlimit:3;}
	.st13{fill:#AA7DCE;}
	.st14{fill:#FF9914;}
	.st15{fill:#458900;}
	.st16{fill:#808080;stroke:#305F00;stroke-width:4.374000e-04;stroke-linecap:square;stroke-miterlimit:3;}
	.st17{fill:#C52184;}
	.st18{fill:#235789;}
	.st19{fill:#808080;stroke:#808080;stroke-width:4.374000e-04;stroke-linecap:square;stroke-miterlimit:3;}
	.st20{fill:#D7263D;}
	.st21{fill:#F7D6ED;}
	.st22{fill:none;stroke:#AC95A5;stroke-width:4.374000e-04;stroke-linecap:square;stroke-miterlimit:3;}
	.st23{fill:#00C49A;}
	.st24{fill:#FFCF56;}
	.st25{fill:none;stroke:#000000;stroke-linecap:square;stroke-miterlimit:10;}
	.st26{font-size:12px;}
	.st27{fill:none;}
	.st28{font-size:15.2526px;}
</style>
<g id="Layer_2_00000064318378794975352750000006612873861132509356_" class="st0">
	<circle class="st1" cx="408.5" cy="82.5" r="56.5"/>
	<path class="st2" d="M253.7,111.3c0,0,64.4,35.5,57.9,101.5s-130.4,54.9-152.5,33.8c-17.1-16.3-11.8-36.7-24.5-34.3
		c-12.6,2.4-26.7,5.3-56.3-8.2s-17.9-42.8-8.6-54.2C69.8,150,154.2,64,253.7,111.3z"/>
	<path class="st3" d="M405.6,560.6c-0.6-18.4,64-138.4,83-153.7s33.8-25.2,85.5-28.3s110.1,3.7,132.8,76.9
		c22.8,73.2,12.3,185.1,12.3,185.1s-6.1,24.6-37.5,8.6s-60.3-63.3-103.9-56c-43.7,7.4-103.9,50.4-132.2,21.5
		C417.2,585.9,406.2,578.7,405.6,560.6z"/>
	<circle class="st4" cx="416.5" cy="353.4" r="52.6"/>
	<ellipse class="st4" cx="355.7" cy="655.3" rx="70.3" ry="63.7"/>
	<ellipse class="st4" cx="217.8" cy="727.9" rx="63.2" ry="100.1"/>
</g>
<g>
	<g transform="translate(-31.4,-231.8) scale(0.3,0.3)">
		<line class="st5" x1="774" y1="1436" x2="612" y2="1299"/>
	</g>
	<g transform="translate(-31.4,-231.8) scale(0.3,0.3)">
		<text transform="matrix(3.3333 0 0 3.3333 692.9962 1366.9945)" class="st6 st7">1</text>
		<line class="st5" x1="774" y1="1436" x2="873" y2="1543"/>
		<text transform="matrix(3.3333 0 0 3.3333 822.9962 1488.9948)" class="st6 st7">1</text>
		<line class="st5" x1="774" y1="1436" x2="683" y2="1478"/>
		<text transform="matrix(3.3333 0 0 3.3333 727.9962 1456.9945)" class="st6 st7">1</text>
		<line class="st5" x1="774" y1="1436" x2="618" y2="1432"/>
		<text transform="matrix(3.3333 0 0 3.3333 695.9958 1433.9948)" class="st6 st7">1</text>
		<line class="st5" x1="774" y1="1436" x2="710" y2="1594"/>
		<text transform="matrix(3.3333 0 0 3.3333 729.9965 1514.9957)" class="st6 st7">1</text>
		<line class="st5" x1="774" y1="1436" x2="643" y2="1541"/>
		<text transform="matrix(3.3333 0 0 3.3333 707.9962 1484.9957)" class="st6 st7">1</text>
		<line class="st5" x1="774" y1="1436" x2="663" y2="1373"/>
		<text transform="matrix(3.3333 0 0 3.3333 717.9962 1403.9948)" class="st6 st7">1</text>
		<line class="st5" x1="774" y1="1436" x2="890" y2="1459"/>
		<text transform="matrix(3.3333 0 0 3.3333 831.9976 1446.9945)" class="st6 st7">1</text>
		<line class="st5" x1="774" y1="1436" x2="876" y2="1374"/>
		<text transform="matrix(3.3333 0 0 3.3333 823.9955 1404.9957)" class="st6 st7">1</text>
		<line class="st5" x1="774" y1="1436" x2="860" y2="1298"/>
		<text transform="matrix(3.3333 0 0 3.3333 806.9976 1366.9945)" class="st6 st7">1</text>
		<line class="st5" x1="774" y1="1436" x2="720" y2="1322"/>
		<text transform="matrix(3.3333 0 0 3.3333 746.9976 1378.9948)" class="st6 st7">1</text>
		<line class="st5" x1="774" y1="1436" x2="802" y2="1610"/>
		<text transform="matrix(3.3333 0 0 3.3333 788.9955 1522.9955)" class="st6 st7">1</text>
		<line class="st5" x1="774" y1="1436" x2="787" y2="1294"/>
		<text transform="matrix(3.3333 0 0 3.3333 784.9969 1364.9957)" class="st6 st7">1</text>
		<line class="st5" x1="774" y1="1436" x2="776" y2="1536"/>
		<text transform="matrix(3.3333 0 0 3.3333 776.9976 1485.9951)" class="st6 st7">1</text>
		<line class="st5" x1="987" y1="1439" x2="1113" y2="1437"/>
		<text transform="matrix(3.3333 0 0 3.3333 1049.9969 1437.9955)" class="st6 st7">1</text>
		<line class="st5" x1="774" y1="1436" x2="987" y2="1439"/>
		<text transform="matrix(3.3333 0 0 3.3333 879.9969 1436.9945)" class="st6 st7">1</text>
		<line class="st5" x1="491" y1="1390" x2="361" y2="1424"/>
		<text transform="matrix(3.3333 0 0 3.3333 425.9958 1406.9945)" class="st6 st7">1</text>
		<line class="st5" x1="491" y1="1390" x2="369" y2="1301"/>
		<text transform="matrix(3.3333 0 0 3.3333 429.9965 1344.9957)" class="st6 st7">1</text>
		<line class="st5" x1="774" y1="1436" x2="491" y2="1390"/>
		<text transform="matrix(3.3333 0 0 3.3333 631.9972 1412.9955)" class="st6 st7">2</text>
		<line class="st5" x1="715" y1="1215" x2="681" y2="1122"/>
		<text transform="matrix(3.3333 0 0 3.3333 697.9962 1167.9955)" class="st6 st7">1</text>
		<line class="st5" x1="774" y1="1436" x2="715" y2="1215"/>
		<text transform="matrix(3.3333 0 0 3.3333 744.9965 1324.9957)" class="st6 st7">2</text>
		<line class="st5" x1="774" y1="1436" x2="515" y2="1548"/>
		<text transform="matrix(3.3333 0 0 3.3333 643.9955 1491.9945)" class="st6 st7">4</text>
		<line class="st5" x1="1465" y1="1047" x2="1476" y2="1178"/>
		<text transform="matrix(3.3333 0 0 3.3333 1471.9972 1111.9945)" class="st6 st7">1</text>
		<line class="st5" x1="1465" y1="1047" x2="1401" y2="928"/>
		<text transform="matrix(3.3333 0 0 3.3333 1432.9966 986.9944)" class="st6 st7">1</text>
		<line class="st5" x1="1465" y1="1047" x2="1483" y2="906"/>
		<text transform="matrix(3.3333 0 0 3.3333 1479.9969 975.9951)" class="st6 st7">1</text>
		<line class="st5" x1="1465" y1="1047" x2="1562" y2="1147"/>
		<text transform="matrix(3.3333 0 0 3.3333 1512.9966 1096.9945)" class="st6 st7">1</text>
		<line class="st5" x1="1465" y1="1047" x2="1608" y2="1074"/>
		<text transform="matrix(3.3333 0 0 3.3333 1535.9962 1059.9957)" class="st6 st7">1</text>
		<line class="st5" x1="1465" y1="1047" x2="1558" y2="935"/>
		<text transform="matrix(3.3333 0 0 3.3333 1502.9966 990.9951)" class="st6 st7">1</text>
		<line class="st5" x1="1465" y1="1047" x2="1344" y2="1003"/>
		<text transform="matrix(3.3333 0 0 3.3333 1403.996 1024.9957)" class="st6 st7">1</text>
		<line class="st5" x1="1465" y1="1047" x2="1384" y2="1125"/>
		<text transform="matrix(3.3333 0 0 3.3333 1417.9966 1085.9951)" class="st6 st7">1</text>
		<line class="st5" x1="1465" y1="1047" x2="1603" y2="998"/>
		<text transform="matrix(3.3333 0 0 3.3333 1533.996 1021.9944)" class="st6 st7">1</text>
		<line class="st5" x1="1262" y1="1149" x2="1465" y2="1047"/>
		<text transform="matrix(3.3333 0 0 3.3333 1362.9966 1097.9955)" class="st6 st7">1</text>
		<line class="st5" x1="991" y1="1296" x2="1262" y2="1149"/>
		<text transform="matrix(3.3333 0 0 3.3333 1125.9962 1221.9945)" class="st6 st7">5</text>
		<line class="st5" x1="774" y1="1436" x2="991" y2="1296"/>
		<text transform="matrix(3.3333 0 0 3.3333 881.9976 1364.9957)" class="st6 st7">1</text>
		<line class="st5" x1="774" y1="1436" x2="698" y2="1762"/>
		<text transform="matrix(3.3333 0 0 3.3333 744.9965 1598.9948)" class="st6 st7">6</text>
		<line class="st5" x1="1495" y1="1973" x2="1599" y2="1923"/>
		<text transform="matrix(3.3333 0 0 3.3333 1546.9972 1947.9962)" class="st6 st7">1</text>
		<line class="st5" x1="1495" y1="1973" x2="1406" y2="2054"/>
		<text transform="matrix(3.3333 0 0 3.3333 1444.9969 2012.9962)" class="st6 st7">1</text>
		<line class="st5" x1="1495" y1="1973" x2="1424" y2="1887"/>
		<text transform="matrix(3.3333 0 0 3.3333 1458.996 1929.9966)" class="st6 st7">1</text>
		<line class="st5" x1="1495" y1="1973" x2="1537" y2="1815"/>
		<text transform="matrix(3.3333 0 0 3.3333 1524.9969 1893.9956)" class="st6 st7">2</text>
		<line class="st5" x1="1741" y1="2165" x2="1730" y2="2057"/>
		<text transform="matrix(3.3333 0 0 3.3333 1736.9972 2110.9956)" class="st6 st7">2</text>
		<line class="st5" x1="2007" y1="2174" x2="1979" y2="2085"/>
		<text transform="matrix(3.3333 0 0 3.3333 1992.9962 2128.9951)" class="st6 st7">1</text>
		<line class="st5" x1="2091" y1="2009" x2="2142" y2="1922"/>
		<text transform="matrix(3.3333 0 0 3.3333 2105.9966 1964.9966)" class="st6 st7">1</text>
		<line class="st5" x1="2007" y1="2174" x2="2091" y2="2009"/>
		<text transform="matrix(3.3333 0 0 3.3333 2037.9962 2090.9956)" class="st6 st7">3</text>
		<line class="st5" x1="1997" y1="2399" x2="2007" y2="2174"/>
		<text transform="matrix(3.3333 0 0 3.3333 2005.9962 2285.9956)" class="st6 st7">1</text>
		<line class="st5" x1="1997" y1="2399" x2="1899" y2="2458"/>
		<text transform="matrix(3.3333 0 0 3.3333 1947.9962 2427.9958)" class="st6 st7">1</text>
		<line class="st5" x1="1997" y1="2399" x2="2014" y2="2526"/>
		<text transform="matrix(3.3333 0 0 3.3333 2006.9972 2461.9949)" class="st6 st7">1</text>
		<line class="st5" x1="1860" y1="2321" x2="1772" y2="2298"/>
		<text transform="matrix(3.3333 0 0 3.3333 1815.9962 2308.9951)" class="st6 st7">1</text>
		<line class="st5" x1="1997" y1="2399" x2="1860" y2="2321"/>
		<text transform="matrix(3.3333 0 0 3.3333 1927.9962 2359.9961)" class="st6 st7">1</text>
		<line class="st5" x1="1997" y1="2399" x2="2083" y2="2484"/>
		<text transform="matrix(3.3333 0 0 3.3333 2039.9969 2440.9956)" class="st6 st7">1</text>
		<line class="st5" x1="1997" y1="2399" x2="2141" y2="2413"/>
		<text transform="matrix(3.3333 0 0 3.3333 2068.9958 2405.9956)" class="st6 st7">1</text>
		<line class="st5" x1="2067" y1="2262" x2="2123" y2="2179"/>
		<text transform="matrix(3.3333 0 0 3.3333 2084.9968 2219.9961)" class="st6 st7">1</text>
		<line class="st5" x1="1997" y1="2399" x2="2067" y2="2262"/>
		<text transform="matrix(3.3333 0 0 3.3333 2020.9962 2329.9961)" class="st6 st7">1</text>
		<line class="st5" x1="2536" y1="2268" x2="2648" y2="2302"/>
		<text transform="matrix(3.3333 0 0 3.3333 2591.9976 2284.9961)" class="st6 st7">1</text>
		<line class="st5" x1="2536" y1="2268" x2="2615" y2="2181"/>
		<text transform="matrix(3.3333 0 0 3.3333 2567.9966 2223.9951)" class="st6 st7">1</text>
		<line class="st5" x1="2395" y1="2308" x2="2536" y2="2268"/>
		<text transform="matrix(3.3333 0 0 3.3333 2464.9968 2287.9958)" class="st6 st7">1</text>
		<line class="st5" x1="2229" y1="2355" x2="2395" y2="2308"/>
		<text transform="matrix(3.3333 0 0 3.3333 2311.9976 2330.9956)" class="st6 st7">2</text>
		<line class="st5" x1="1997" y1="2399" x2="2229" y2="2355"/>
		<text transform="matrix(3.3333 0 0 3.3333 2112.9966 2376.9949)" class="st6 st7">1</text>
		<line class="st5" x1="1997" y1="2399" x2="1825" y2="2418"/>
		<text transform="matrix(3.3333 0 0 3.3333 1910.9962 2407.9958)" class="st6 st7">1</text>
		<line class="st5" x1="1997" y1="2399" x2="1957" y2="2288"/>
		<text transform="matrix(3.3333 0 0 3.3333 1976.9972 2342.9958)" class="st6 st7">1</text>
		<line class="st5" x1="1923" y1="2545" x2="1884" y2="2629"/>
		<text transform="matrix(3.3333 0 0 3.3333 1891.9972 2586.9949)" class="st6 st7">1</text>
		<line class="st5" x1="1997" y1="2399" x2="1923" y2="2545"/>
		<text transform="matrix(3.3333 0 0 3.3333 1948.996 2471.9949)" class="st6 st7">1</text>
		<line class="st5" x1="2145" y1="2304" x2="2232" y2="2240"/>
		<text transform="matrix(3.3333 0 0 3.3333 2184.9968 2271.9949)" class="st6 st7">1</text>
		<line class="st5" x1="1997" y1="2399" x2="2145" y2="2304"/>
		<text transform="matrix(3.3333 0 0 3.3333 2069.9968 2350.9956)" class="st6 st7">1</text>
		<line class="st5" x1="2170" y1="2608" x2="2202" y2="2731"/>
		<text transform="matrix(3.3333 0 0 3.3333 2185.9966 2668.9968)" class="st6 st7">1</text>
		<line class="st5" x1="2330" y1="2753" x2="2455" y2="2785"/>
		<text transform="matrix(3.3333 0 0 3.3333 2391.9976 2768.9968)" class="st6 st7">1</text>
		<line class="st5" x1="2330" y1="2753" x2="2363" y2="2877"/>
		<text transform="matrix(3.3333 0 0 3.3333 2346.9976 2814.9966)" class="st6 st7">1</text>
		<line class="st5" x1="2170" y1="2608" x2="2330" y2="2753"/>
		<text transform="matrix(3.3333 0 0 3.3333 2249.9968 2679.9966)" class="st6 st7">1</text>
		<line class="st5" x1="1997" y1="2399" x2="2170" y2="2608"/>
		<text transform="matrix(3.3333 0 0 3.3333 2082.9966 2502.9958)" class="st6 st7">1</text>
		<line class="st5" x1="2226" y1="2489" x2="2320" y2="2524"/>
		<text transform="matrix(3.3333 0 0 3.3333 2272.9966 2505.9956)" class="st6 st7">1</text>
		<line class="st5" x1="1997" y1="2399" x2="2226" y2="2489"/>
		<text transform="matrix(3.3333 0 0 3.3333 2110.9966 2443.9951)" class="st6 st7">3</text>
		<line class="st5" x1="2027" y1="2653" x2="2024" y2="2823"/>
		<text transform="matrix(3.3333 0 0 3.3333 2027.9962 2737.9946)" class="st6 st7">3</text>
		<line class="st5" x1="1997" y1="2399" x2="2027" y2="2653"/>
		<text transform="matrix(3.3333 0 0 3.3333 2012.9962 2525.9956)" class="st6 st7">3</text>
		<line class="st5" x1="1723" y1="2596" x2="1612" y2="2543"/>
		<text transform="matrix(3.3333 0 0 3.3333 1666.9972 2568.9951)" class="st6 st7">1</text>
		<line class="st5" x1="1723" y1="2596" x2="1555" y2="2630"/>
		<text transform="matrix(3.3333 0 0 3.3333 1638.996 2612.9941)" class="st6 st7">1</text>
		<line class="st5" x1="1723" y1="2596" x2="1715" y2="2724"/>
		<text transform="matrix(3.3333 0 0 3.3333 1722.9966 2659.9961)" class="st6 st7">1</text>
		<line class="st5" x1="1227" y1="2978" x2="1118" y2="2925"/>
		<text transform="matrix(3.3333 0 0 3.3333 1171.9972 2950.9958)" class="st6 st7">1</text>
		<line class="st5" x1="1227" y1="2978" x2="1343" y2="2993"/>
		<text transform="matrix(3.3333 0 0 3.3333 1284.9969 2984.9966)" class="st6 st7">1</text>
		<line class="st5" x1="1227" y1="2978" x2="1165" y2="3074"/>
		<text transform="matrix(3.3333 0 0 3.3333 1185.9962 3025.9958)" class="st6 st7">1</text>
		<line class="st5" x1="1227" y1="2978" x2="1225" y2="2859"/>
		<text transform="matrix(3.3333 0 0 3.3333 1227.9966 2917.9946)" class="st6 st7">1</text>
		<line class="st5" x1="1227" y1="2978" x2="1300" y2="3119"/>
		<text transform="matrix(3.3333 0 0 3.3333 1262.9966 3047.9946)" class="st6 st7">2</text>
		<line class="st5" x1="891" y1="3215" x2="990" y2="3276"/>
		<text transform="matrix(3.3333 0 0 3.3333 939.9969 3244.9966)" class="st6 st7">1</text>
		<line class="st5" x1="891" y1="3215" x2="925" y2="3111"/>
		<text transform="matrix(3.3333 0 0 3.3333 918.9955 3162.9946)" class="st6 st7">1</text>
		<line class="st5" x1="787" y1="3081" x2="723" y2="2975"/>
		<text transform="matrix(3.3333 0 0 3.3333 754.9965 3027.9946)" class="st6 st7">1</text>
		<line class="st5" x1="891" y1="3215" x2="787" y2="3081"/>
		<text transform="matrix(3.3333 0 0 3.3333 838.9955 3147.9946)" class="st6 st7">1</text>
		<line class="st5" x1="891" y1="3215" x2="764" y2="3281"/>
		<text transform="matrix(3.3333 0 0 3.3333 826.9976 3247.9946)" class="st6 st7">2</text>
		<line class="st5" x1="585" y1="3772" x2="447" y2="3802"/>
		<text transform="matrix(3.3333 0 0 3.3333 515.9958 3786.9949)" class="st6 st7">1</text>
		<line class="st5" x1="585" y1="3772" x2="577" y2="3891"/>
		<text transform="matrix(3.3333 0 0 3.3333 584.9965 3830.9956)" class="st6 st7">1</text>
		<line class="st5" x1="675" y1="3671" x2="585" y2="3772"/>
		<text transform="matrix(3.3333 0 0 3.3333 621.9972 3720.9956)" class="st6 st7">1</text>
		<line class="st5" x1="827" y1="3498" x2="675" y2="3671"/>
		<text transform="matrix(3.3333 0 0 3.3333 742.9962 3583.9968)" class="st6 st7">5</text>
		<line class="st5" x1="891" y1="3414" x2="827" y2="3498"/>
		<text transform="matrix(3.3333 0 0 3.3333 849.9969 3455.9956)" class="st6 st7">1</text>
		<line class="st5" x1="1113" y1="3719" x2="1211" y2="3706"/>
		<text transform="matrix(3.3333 0 0 3.3333 1161.9972 3711.9949)" class="st6 st7">1</text>
		<line class="st5" x1="1113" y1="3719" x2="1073" y2="3812"/>
		<text transform="matrix(3.3333 0 0 3.3333 1080.9962 3764.9961)" class="st6 st7">1</text>
		<line class="st5" x1="1250" y1="3884" x2="1303" y2="4083"/>
		<text transform="matrix(3.3333 0 0 3.3333 1276.9972 3982.9946)" class="st6 st7">5</text>
		<line class="st5" x1="1250" y1="3884" x2="1489" y2="3965"/>
		<text transform="matrix(3.3333 0 0 3.3333 1368.996 3923.9968)" class="st6 st7">6</text>
		<line class="st5" x1="1113" y1="3719" x2="1250" y2="3884"/>
		<text transform="matrix(3.3333 0 0 3.3333 1180.9962 3800.9956)" class="st6 st7">4</text>
		<line class="st5" x1="1034" y1="3611" x2="1113" y2="3719"/>
		<text transform="matrix(3.3333 0 0 3.3333 1072.9962 3664.9961)" class="st6 st7">1</text>
		<line class="st5" x1="891" y1="3414" x2="1034" y2="3611"/>
		<text transform="matrix(3.3333 0 0 3.3333 961.9972 3511.9949)" class="st6 st7">5</text>
		<line class="st5" x1="891" y1="3215" x2="891" y2="3414"/>
		<text transform="matrix(3.3333 0 0 3.3333 893.9955 3313.9968)" class="st6 st7">1</text>
		<line class="st5" x1="533" y1="3199" x2="513" y2="3111"/>
		<text transform="matrix(3.3333 0 0 3.3333 523.9955 3154.9966)" class="st6 st7">1</text>
		<line class="st5" x1="533" y1="3199" x2="442" y2="3215"/>
		<text transform="matrix(3.3333 0 0 3.3333 486.9968 3206.9949)" class="st6 st7">1</text>
		<line class="st5" x1="328" y1="3161" x2="238" y2="3147"/>
		<text transform="matrix(3.3333 0 0 3.3333 282.9966 3153.9968)" class="st6 st7">1</text>
		<line class="st5" x1="533" y1="3199" x2="328" y2="3161"/>
		<text transform="matrix(3.3333 0 0 3.3333 429.9965 3179.9966)" class="st6 st7">4</text>
		<line class="st5" x1="533" y1="3199" x2="525" y2="3290"/>
		<text transform="matrix(3.3333 0 0 3.3333 533.9955 3243.9968)" class="st6 st7">1</text>
		<line class="st5" x1="891" y1="3215" x2="533" y2="3199"/>
		<text transform="matrix(3.3333 0 0 3.3333 711.9976 3206.9949)" class="st6 st7">6</text>
		<line class="st5" x1="1227" y1="2978" x2="891" y2="3215"/>
		<text transform="matrix(3.3333 0 0 3.3333 1058.996 3093.9968)" class="st6 st7">5</text>
		<line class="st5" x1="1434" y1="2820" x2="1227" y2="2978"/>
		<text transform="matrix(3.3333 0 0 3.3333 1329.9969 2895.9958)" class="st6 st7">2</text>
		<line class="st5" x1="1723" y1="2596" x2="1434" y2="2820"/>
		<text transform="matrix(3.3333 0 0 3.3333 1577.9966 2704.9966)" class="st6 st7">5</text>
		<line class="st5" x1="1997" y1="2399" x2="1723" y2="2596"/>
		<text transform="matrix(3.3333 0 0 3.3333 1859.9969 2494.9961)" class="st6 st7">1</text>
		<line class="st5" x1="1741" y1="2165" x2="1997" y2="2399"/>
		<text transform="matrix(3.3333 0 0 3.3333 1868.996 2281.9949)" class="st6 st7">3</text>
		<line class="st5" x1="1495" y1="1973" x2="1741" y2="2165"/>
		<text transform="matrix(3.3333 0 0 3.3333 1617.9966 2068.9951)" class="st6 st7">3</text>
		<line class="st5" x1="1301" y1="1852" x2="1495" y2="1973"/>
		<text transform="matrix(3.3333 0 0 3.3333 1397.9966 1911.9952)" class="st6 st7">1</text>
		<line class="st5" x1="1162" y1="1756" x2="1301" y2="1852"/>
		<text transform="matrix(3.3333 0 0 3.3333 1230.9962 1803.9956)" class="st6 st7">1</text>
		<line class="st5" x1="971" y1="1608" x2="1162" y2="1756"/>
		<text transform="matrix(3.3333 0 0 3.3333 1065.9962 1681.9945)" class="st6 st7">3</text>
		<line class="st5" x1="774" y1="1436" x2="971" y2="1608"/>
		<text transform="matrix(3.3333 0 0 3.3333 871.9976 1521.9945)" class="st6 st7">1</text>
		<line class="st5" x1="774" y1="1436" x2="537" y2="1688"/>
		<text transform="matrix(3.3333 0 0 3.3333 647.9962 1561.9945)" class="st6 st7">7</text>
		<circle class="st8" cx="774" cy="1436" r="50"/>
		<circle class="st9" cx="774" cy="1436" r="50"/>
		<circle class="st10" cx="774" cy="1436" r="50"/>
	</g>
	<g transform="matrix(0.3,0,0,0.3,200.8,199) translate(-162,-137)">
		<circle class="st8" cx="0" cy="0" r="50"/>
		<circle class="st11" cx="0" cy="0" r="50"/>
		<circle class="st10" cx="0" cy="0" r="50"/>
	</g>
	<g transform="matrix(0.3,0,0,0.3,152.2,157.9) translate(261,244)">
		<circle class="st8" cx="0" cy="0" r="11"/>
		<circle class="st11" cx="0" cy="0" r="11"/>
		<circle class="st10" cx="0" cy="0" r="11"/>
	</g>
	<g transform="matrix(0.3,0,0,0.3,230.5,231.1) translate(-190,-65)">
		<circle class="st8" cx="0" cy="0" r="5"/>
		<circle class="st11" cx="0" cy="0" r="5"/>
		<circle class="st12" cx="0" cy="0" r="5"/>
	</g>
	<g transform="matrix(0.3,0,0,0.3,173.5,211.6) translate(-65,-46)">
		<circle class="st8" cx="0" cy="0" r="5"/>
		<circle class="st11" cx="0" cy="0" r="5"/>
		<circle class="st12" cx="0" cy="0" r="5"/>
	</g>
	<g transform="matrix(0.3,0,0,0.3,154,197.8) translate(92,162)">
		<circle class="st8" cx="0" cy="0" r="15"/>
		<circle class="st11" cx="0" cy="0" r="15"/>
		<circle class="st10" cx="0" cy="0" r="15"/>
	</g>
	<g transform="matrix(0.3,0,0,0.3,181.6,246.4) translate(-67,-53)">
		<circle class="st8" cx="0" cy="0" r="9"/>
		<circle class="st11" cx="0" cy="0" r="9"/>
		<circle class="st10" cx="0" cy="0" r="9"/>
	</g>
	<g transform="matrix(0.3,0,0,0.3,161.5,230.5) translate(20,-168)">
		<circle class="st8" cx="0" cy="0" r="7"/>
		<circle class="st11" cx="0" cy="0" r="7"/>
		<circle class="st10" cx="0" cy="0" r="7"/>
	</g>
	<g transform="matrix(0.3,0,0,0.3,167.5,180.1) translate(227,86)">
		<circle class="st8" cx="0" cy="0" r="5"/>
		<circle class="st11" cx="0" cy="0" r="5"/>
		<circle class="st12" cx="0" cy="0" r="5"/>
	</g>
	<g transform="matrix(0.3,0,0,0.3,235.6,205.9) translate(-14,-85)">
		<circle class="st8" cx="0" cy="0" r="5"/>
		<circle class="st11" cx="0" cy="0" r="5"/>
		<circle class="st12" cx="0" cy="0" r="5"/>
	</g>
	<g transform="matrix(0.3,0,0,0.3,231.4,180.4) translate(-16,-76)">
		<circle class="st8" cx="0" cy="0" r="5"/>
		<circle class="st11" cx="0" cy="0" r="5"/>
		<circle class="st12" cx="0" cy="0" r="5"/>
	</g>
	<g transform="matrix(0.3,0,0,0.3,226.6,157.6) translate(-140,24)">
		<circle class="st8" cx="0" cy="0" r="5"/>
		<circle class="st11" cx="0" cy="0" r="5"/>
		<circle class="st12" cx="0" cy="0" r="5"/>
	</g>
	<g transform="matrix(0.3,0,0,0.3,184.6,164.8) translate(82,288)">
		<circle class="st8" cx="0" cy="0" r="13"/>
		<circle class="st11" cx="0" cy="0" r="13"/>
		<circle class="st10" cx="0" cy="0" r="13"/>
	</g>
	<g transform="matrix(0.3,0,0,0.3,209.2,251.2) translate(-15,-316)">
		<circle class="st8" cx="0" cy="0" r="7"/>
		<circle class="st11" cx="0" cy="0" r="7"/>
		<circle class="st10" cx="0" cy="0" r="7"/>
	</g>
	<g transform="matrix(0.3,0,0,0.3,204.7,156.4) translate(-11,242)">
		<circle class="st8" cx="0" cy="0" r="5"/>
		<circle class="st11" cx="0" cy="0" r="5"/>
		<circle class="st12" cx="0" cy="0" r="5"/>
	</g>
	<g transform="matrix(0.3,0,0,0.3,201.4,229) translate(211,-97)">
		<circle class="st8" cx="0" cy="0" r="49"/>
		<circle class="st11" cx="0" cy="0" r="49"/>
		<circle class="st10" cx="0" cy="0" r="49"/>
	</g>
	<g transform="matrix(0.3,0,0,0.3,264.7,199.9) translate(126,-2)">
		<circle class="st8" cx="0" cy="0" r="7"/>
		<circle class="st11" cx="0" cy="0" r="7"/>
		<circle class="st10" cx="0" cy="0" r="7"/>
	</g>
	<g transform="matrix(0.3,0,0,0.3,302.5,199.3) translate(-622,-47)">
		<circle class="st8" cx="0" cy="0" r="50"/>
		<circle class="st11" cx="0" cy="0" r="50"/>
		<circle class="st10" cx="0" cy="0" r="50"/>
	</g>
	<g transform="matrix(0.3,0,0,0.3,115.9,185.2) translate(-130,34)">
		<circle class="st8" cx="0" cy="0" r="5"/>
		<circle class="st11" cx="0" cy="0" r="5"/>
		<circle class="st12" cx="0" cy="0" r="5"/>
	</g>
	<g transform="matrix(0.3,0,0,0.3,76.9,195.4) translate(8,-123)">
		<circle class="st8" cx="0" cy="0" r="23"/>
		<circle class="st11" cx="0" cy="0" r="23"/>
		<circle class="st10" cx="0" cy="0" r="23"/>
	</g>
	<g transform="matrix(0.3,0,0,0.3,79.3,158.5) translate(346,-86)">
		<circle class="st8" cx="0" cy="0" r="5"/>
		<circle class="st11" cx="0" cy="0" r="5"/>
		<circle class="st12" cx="0" cy="0" r="5"/>
	</g>
	<g transform="matrix(0.3,0,0,0.3,183.1,132.7) translate(-34,-93)">
		<circle class="st8" cx="0" cy="0" r="5"/>
		<circle class="st11" cx="0" cy="0" r="5"/>
		<circle class="st12" cx="0" cy="0" r="5"/>
	</g>
	<g transform="matrix(0.3,0,0,0.3,172.9,104.8) translate(-166,426)">
		<circle class="st8" cx="0" cy="0" r="39"/>
		<circle class="st11" cx="0" cy="0" r="39"/>
		<circle class="st10" cx="0" cy="0" r="39"/>
	</g>
	<g transform="matrix(0.3,0,0,0.3,123.1,232.6) translate(476,-252)">
		<circle class="st8" cx="0" cy="0" r="9"/>
		<circle class="st11" cx="0" cy="0" r="9"/>
		<circle class="st10" cx="0" cy="0" r="9"/>
	</g>
	<g transform="matrix(0.3,0,0,0.3,265.9,157) translate(271,-147)">
		<circle class="st8" cx="0" cy="0" r="5"/>
		<circle class="st11" cx="0" cy="0" r="5"/>
		<circle class="st12" cx="0" cy="0" r="5"/>
	</g>
	<g transform="matrix(0.3,0,0,0.3,347.2,112.9) translate(203,-102)">
		<circle class="st8" cx="0" cy="0" r="50"/>
		<circle class="st13" cx="0" cy="0" r="50"/>
		<circle class="st10" cx="0" cy="0" r="50"/>
	</g>
	<g transform="matrix(0.3,0,0,0.3,408.1,82.3) translate(11,131)">
		<circle class="st8" cx="0" cy="0" r="5"/>
		<circle class="st11" cx="0" cy="0" r="5"/>
		<circle class="st12" cx="0" cy="0" r="5"/>
	</g>
	<g transform="matrix(0.3,0,0,0.3,411.4,121.6) translate(-75,-250)">
		<circle class="st8" cx="0" cy="0" r="5"/>
		<circle class="st11" cx="0" cy="0" r="5"/>
		<circle class="st12" cx="0" cy="0" r="5"/>
	</g>
	<g transform="matrix(0.3,0,0,0.3,388.9,46.6) translate(82,-22)">
		<circle class="st8" cx="0" cy="0" r="5"/>
		<circle class="st11" cx="0" cy="0" r="5"/>
		<circle class="st12" cx="0" cy="0" r="5"/>
	</g>
	<g transform="matrix(0.3,0,0,0.3,413.5,40) translate(79,241)">
		<circle class="st8" cx="0" cy="0" r="5"/>
		<circle class="st11" cx="0" cy="0" r="5"/>
		<circle class="st12" cx="0" cy="0" r="5"/>
	</g>
	<g transform="matrix(0.3,0,0,0.3,437.2,112.3) translate(46,-73)">
		<circle class="st8" cx="0" cy="0" r="5"/>
		<circle class="st11" cx="0" cy="0" r="5"/>
		<circle class="st12" cx="0" cy="0" r="5"/>
	</g>
	<g transform="matrix(0.3,0,0,0.3,451,90.4) translate(-50,-139)">
		<circle class="st8" cx="0" cy="0" r="5"/>
		<circle class="st11" cx="0" cy="0" r="5"/>
		<circle class="st12" cx="0" cy="0" r="5"/>
	</g>
	<g transform="matrix(0.3,0,0,0.3,436,48.7) translate(-214,68)">
		<circle class="st8" cx="0" cy="0" r="9"/>
		<circle class="st11" cx="0" cy="0" r="9"/>
		<circle class="st10" cx="0" cy="0" r="9"/>
	</g>
	<g transform="matrix(0.3,0,0,0.3,371.8,69.1) translate(40,122)">
		<circle class="st8" cx="0" cy="0" r="5"/>
		<circle class="st11" cx="0" cy="0" r="5"/>
		<circle class="st12" cx="0" cy="0" r="5"/>
	</g>
	<g transform="matrix(0.3,0,0,0.3,383.8,105.7) translate(219,-127)">
		<circle class="st8" cx="0" cy="0" r="5"/>
		<circle class="st11" cx="0" cy="0" r="5"/>
		<circle class="st12" cx="0" cy="0" r="5"/>
	</g>
	<g transform="matrix(0.3,0,0,0.3,449.5,67.6) translate(-905,764)">
		<circle class="st8" cx="0" cy="0" r="31"/>
		<circle class="st11" cx="0" cy="0" r="31"/>
		<circle class="st10" cx="0" cy="0" r="31"/>
	</g>
	<g transform="matrix(0.3,0,0,0.3,178,296.8) translate(273,-154)">
		<circle class="st8" cx="0" cy="0" r="11"/>
		<circle class="st11" cx="0" cy="0" r="11"/>
		<circle class="st10" cx="0" cy="0" r="11"/>
	</g>
	<g transform="matrix(0.3,0,0,0.3,259.9,250.6) translate(191,148)">
		<circle class="st8" cx="0" cy="0" r="5"/>
		<circle class="st11" cx="0" cy="0" r="5"/>
		<circle class="st12" cx="0" cy="0" r="5"/>
	</g>
	<g transform="matrix(0.3,0,0,0.3,317.2,295) translate(139,96)">
		<circle class="st8" cx="0" cy="0" r="9"/>
		<circle class="st11" cx="0" cy="0" r="9"/>
		<circle class="st10" cx="0" cy="0" r="9"/>
	</g>
	<g transform="matrix(0.3,0,0,0.3,358.9,323.8) translate(194,121)">
		<circle class="st8" cx="0" cy="0" r="50"/>
		<circle class="st11" cx="0" cy="0" r="50"/>
		<circle class="st10" cx="0" cy="0" r="50"/>
	</g>
	<g transform="matrix(0.3,0,0,0.3,417.1,360.1) translate(104,-50)">
		<circle class="st8" cx="0" cy="0" r="7"/>
		<circle class="st11" cx="0" cy="0" r="7"/>
		<circle class="st10" cx="0" cy="0" r="7"/>
	</g>
	<g transform="matrix(0.3,0,0,0.3,448.3,345.1) translate(-193,131)">
		<circle class="st8" cx="0" cy="0" r="5"/>
		<circle class="st11" cx="0" cy="0" r="5"/>
		<circle class="st12" cx="0" cy="0" r="5"/>
	</g>
	<g transform="matrix(0.3,0,0,0.3,390.4,384.4) translate(18,-167)">
		<circle class="st8" cx="0" cy="0" r="5"/>
		<circle class="st11" cx="0" cy="0" r="5"/>
		<circle class="st12" cx="0" cy="0" r="5"/>
	</g>
	<g transform="matrix(0.3,0,0,0.3,395.8,334.3) translate(113,-72)">
		<circle class="st8" cx="0" cy="0" r="11"/>
		<circle class="st11" cx="0" cy="0" r="11"/>
		<circle class="st10" cx="0" cy="0" r="11"/>
	</g>
	<g transform="matrix(0.3,0,0,0.3,429.7,312.7) translate(204,350)">
		<circle class="st8" cx="0" cy="0" r="5"/>
		<circle class="st11" cx="0" cy="0" r="5"/>
		<circle class="st12" cx="0" cy="0" r="5"/>
	</g>
	<g transform="matrix(0.3,0,0,0.3,490.9,417.7) translate(-11,-108)">
		<circle class="st8" cx="0" cy="0" r="9"/>
		<circle class="st11" cx="0" cy="0" r="9"/>
		<circle class="st10" cx="0" cy="0" r="9"/>
	</g>
	<g transform="matrix(0.3,0,0,0.3,487.6,385.3) translate(267,342)">
		<circle class="st8" cx="0" cy="0" r="50"/>
		<circle class="st14" cx="0" cy="0" r="50"/>
		<circle class="st10" cx="0" cy="0" r="50"/>
	</g>
	<g transform="matrix(0.3,0,0,0.3,567.7,487.9) translate(10,-225)">
		<circle class="st8" cx="0" cy="0" r="5"/>
		<circle class="st11" cx="0" cy="0" r="5"/>
		<circle class="st12" cx="0" cy="0" r="5"/>
	</g>
	<g transform="matrix(0.3,0,0,0.3,570.7,420.4) translate(-28,-89)">
		<circle class="st8" cx="0" cy="0" r="7"/>
		<circle class="st11" cx="0" cy="0" r="7"/>
		<circle class="st10" cx="0" cy="0" r="7"/>
	</g>
	<g transform="matrix(0.3,0,0,0.3,562.3,393.7) translate(112,-76)">
		<circle class="st8" cx="0" cy="0" r="7"/>
		<circle class="st11" cx="0" cy="0" r="7"/>
		<circle class="st10" cx="0" cy="0" r="7"/>
	</g>
	<g transform="matrix(0.3,0,0,0.3,595.9,370.9) translate(51,-87)">
		<circle class="st8" cx="0" cy="0" r="15"/>
		<circle class="st11" cx="0" cy="0" r="15"/>
		<circle class="st10" cx="0" cy="0" r="15"/>
	</g>
	<g transform="matrix(0.3,0,0,0.3,611.2,344.8) translate(-243,536)">
		<circle class="st8" cx="0" cy="0" r="13"/>
		<circle class="st11" cx="0" cy="0" r="13"/>
		<circle class="st10" cx="0" cy="0" r="13"/>
	</g>
	<g transform="matrix(0.3,0,0,0.3,538.3,505.6) translate(115,68)">
		<circle class="st8" cx="0" cy="0" r="13"/>
		<circle class="st11" cx="0" cy="0" r="13"/>
		<circle class="st10" cx="0" cy="0" r="13"/>
	</g>
	<g transform="matrix(0.3,0,0,0.3,572.8,526) translate(-154,-205)">
		<circle class="st8" cx="0" cy="0" r="5"/>
		<circle class="st11" cx="0" cy="0" r="5"/>
		<circle class="st12" cx="0" cy="0" r="5"/>
	</g>
	<g transform="matrix(0.3,0,0,0.3,526.6,464.5) translate(-88,-23)">
		<circle class="st8" cx="0" cy="0" r="5"/>
		<circle class="st15" cx="0" cy="0" r="5"/>
		<circle class="st16" cx="0" cy="0" r="5"/>
	</g>
	<g transform="matrix(0.3,0,0,0.3,500.2,457.6) translate(311,186)">
		<circle class="st8" cx="0" cy="0" r="5"/>
		<circle class="st11" cx="0" cy="0" r="5"/>
		<circle class="st12" cx="0" cy="0" r="5"/>
	</g>
	<g transform="matrix(0.3,0,0,0.3,593.5,513.4) translate(58,-71)">
		<circle class="st8" cx="0" cy="0" r="39"/>
		<circle class="st17" cx="0" cy="0" r="39"/>
		<circle class="st10" cx="0" cy="0" r="39"/>
	</g>
	<g transform="matrix(0.3,0,0,0.3,610.9,492.1) translate(-74,-151)">
		<circle class="st8" cx="0" cy="0" r="5"/>
		<circle class="st11" cx="0" cy="0" r="5"/>
		<circle class="st12" cx="0" cy="0" r="5"/>
	</g>
	<g transform="matrix(0.3,0,0,0.3,588.7,446.8) translate(56,-83)">
		<circle class="st8" cx="0" cy="0" r="5"/>
		<circle class="st11" cx="0" cy="0" r="5"/>
		<circle class="st12" cx="0" cy="0" r="5"/>
	</g>
	<g transform="matrix(0.3,0,0,0.3,605.5,421.9) translate(106,176)">
		<circle class="st8" cx="0" cy="0" r="5"/>
		<circle class="st11" cx="0" cy="0" r="5"/>
		<circle class="st12" cx="0" cy="0" r="5"/>
	</g>
	<g transform="matrix(0.3,0,0,0.3,637.3,474.7) translate(166,-47)">
		<circle class="st8" cx="0" cy="0" r="5"/>
		<circle class="st11" cx="0" cy="0" r="5"/>
		<circle class="st12" cx="0" cy="0" r="5"/>
	</g>
	<g transform="matrix(0.3,0,0,0.3,687.1,460.6) translate(141,-40)">
		<circle class="st8" cx="0" cy="0" r="39"/>
		<circle class="st11" cx="0" cy="0" r="39"/>
		<circle class="st10" cx="0" cy="0" r="39"/>
	</g>
	<g transform="matrix(0.3,0,0,0.3,729.4,448.6) translate(112,34)">
		<circle class="st8" cx="0" cy="0" r="5"/>
		<circle class="st11" cx="0" cy="0" r="5"/>
		<circle class="st12" cx="0" cy="0" r="5"/>
	</g>
	<g transform="matrix(0.3,0,0,0.3,763,458.8) translate(-33,-121)">
		<circle class="st8" cx="0" cy="0" r="5"/>
		<circle class="st11" cx="0" cy="0" r="5"/>
		<circle class="st12" cx="0" cy="0" r="5"/>
	</g>
	<g transform="matrix(0.3,0,0,0.3,753.1,422.5) translate(-790,237)">
		<circle class="st8" cx="0" cy="0" r="37"/>
		<circle class="st11" cx="0" cy="0" r="37"/>
		<circle class="st10" cx="0" cy="0" r="37"/>
	</g>
	<g transform="matrix(0.3,0,0,0.3,516.1,493.6) translate(132,-130)">
		<circle class="st8" cx="0" cy="0" r="7"/>
		<circle class="st11" cx="0" cy="0" r="7"/>
		<circle class="st10" cx="0" cy="0" r="7"/>
	</g>
	<g transform="matrix(0.3,0,0,0.3,555.7,454.6) translate(-34,257)">
		<circle class="st8" cx="0" cy="0" r="7"/>
		<circle class="st11" cx="0" cy="0" r="7"/>
		<circle class="st10" cx="0" cy="0" r="7"/>
	</g>
	<g transform="matrix(0.3,0,0,0.3,545.5,531.7) translate(-39,84)">
		<circle class="st8" cx="0" cy="0" r="5"/>
		<circle class="st11" cx="0" cy="0" r="5"/>
		<circle class="st12" cx="0" cy="0" r="5"/>
	</g>
	<g transform="matrix(0.3,0,0,0.3,533.8,556.9) translate(261,-325)">
		<circle class="st8" cx="0" cy="0" r="9"/>
		<circle class="st11" cx="0" cy="0" r="9"/>
		<circle class="st10" cx="0" cy="0" r="9"/>
	</g>
	<g transform="matrix(0.3,0,0,0.3,612.1,459.4) translate(87,-64)">
		<circle class="st8" cx="0" cy="0" r="5"/>
		<circle class="st11" cx="0" cy="0" r="5"/>
		<circle class="st12" cx="0" cy="0" r="5"/>
	</g>
	<g transform="matrix(0.3,0,0,0.3,638.2,440.2) translate(-62,368)">
		<circle class="st8" cx="0" cy="0" r="50"/>
		<circle class="st18" cx="0" cy="0" r="50"/>
		<circle class="st10" cx="0" cy="0" r="50"/>
	</g>
	<g transform="matrix(0.3,0,0,0.3,619.6,550.6) translate(32,123)">
		<circle class="st8" cx="0" cy="0" r="7"/>
		<circle class="st15" cx="0" cy="0" r="7"/>
		<circle class="st19" cx="0" cy="0" r="7"/>
	</g>
	<g transform="matrix(0.3,0,0,0.3,629.2,587.5) translate(128,22)">
		<circle class="st8" cx="0" cy="0" r="50"/>
		<circle class="st20" cx="0" cy="0" r="50"/>
		<circle class="st10" cx="0" cy="0" r="50"/>
	</g>
	<g transform="matrix(0.3,0,0,0.3,667.6,594.1) translate(125,32)">
		<circle class="st8" cx="0" cy="0" r="7"/>
		<circle class="st11" cx="0" cy="0" r="7"/>
		<circle class="st10" cx="0" cy="0" r="7"/>
	</g>
	<g transform="matrix(0.3,0,0,0.3,705.1,603.7) translate(-92,92)">
		<circle class="st8" cx="0" cy="0" r="5"/>
		<circle class="st21" cx="0" cy="0" r="5"/>
		<circle class="st22" cx="0" cy="0" r="5"/>
	</g>
	<g transform="matrix(0.3,0,0,0.3,677.5,631.3) translate(-137,-388)">
		<circle class="st8" cx="0" cy="0" r="7"/>
		<circle class="st11" cx="0" cy="0" r="7"/>
		<circle class="st10" cx="0" cy="0" r="7"/>
	</g>
	<g transform="matrix(0.3,0,0,0.3,636.4,514.9) translate(94,35)">
		<circle class="st8" cx="0" cy="0" r="7"/>
		<circle class="st11" cx="0" cy="0" r="7"/>
		<circle class="st10" cx="0" cy="0" r="7"/>
	</g>
	<g transform="matrix(0.3,0,0,0.3,664.6,525.4) translate(-293,129)">
		<circle class="st8" cx="0" cy="0" r="27"/>
		<circle class="st11" cx="0" cy="0" r="27"/>
		<circle class="st10" cx="0" cy="0" r="27"/>
	</g>
	<g transform="matrix(0.3,0,0,0.3,576.7,564.1) translate(-3,170)">
		<circle class="st8" cx="0" cy="0" r="5"/>
		<circle class="st11" cx="0" cy="0" r="5"/>
		<circle class="st12" cx="0" cy="0" r="5"/>
	</g>
	<g transform="matrix(0.3,0,0,0.3,575.8,615.1) translate(-301,-227)">
		<circle class="st8" cx="0" cy="0" r="50"/>
		<circle class="st23" cx="0" cy="0" r="50"/>
		<circle class="st10" cx="0" cy="0" r="50"/>
	</g>
	<g transform="matrix(0.3,0,0,0.3,485.5,547) translate(-111,-53)">
		<circle class="st8" cx="0" cy="0" r="7"/>
		<circle class="st11" cx="0" cy="0" r="7"/>
		<circle class="st10" cx="0" cy="0" r="7"/>
	</g>
	<g transform="matrix(0.3,0,0,0.3,452.2,531.1) translate(-57,87)">
		<circle class="st8" cx="0" cy="0" r="50"/>
		<circle class="st24" cx="0" cy="0" r="50"/>
		<circle class="st10" cx="0" cy="0" r="50"/>
	</g>
	<g transform="matrix(0.3,0,0,0.3,435.1,557.2) translate(160,94)">
		<circle class="st8" cx="0" cy="0" r="9"/>
		<circle class="st11" cx="0" cy="0" r="9"/>
		<circle class="st10" cx="0" cy="0" r="9"/>
	</g>
	<g transform="matrix(0.3,0,0,0.3,483.1,585.4) translate(-281,96)">
		<circle class="st8" cx="0" cy="0" r="5"/>
		<circle class="st11" cx="0" cy="0" r="5"/>
		<circle class="st12" cx="0" cy="0" r="5"/>
	</g>
	<g transform="matrix(0.3,0,0,0.3,398.8,614.2) translate(-207,158)">
		<circle class="st8" cx="0" cy="0" r="50"/>
		<circle class="st11" cx="0" cy="0" r="50"/>
		<circle class="st10" cx="0" cy="0" r="50"/>
	</g>
	<g transform="matrix(0.3,0,0,0.3,336.7,661.6) translate(-109,-53)">
		<circle class="st8" cx="0" cy="0" r="5"/>
		<circle class="st11" cx="0" cy="0" r="5"/>
		<circle class="st12" cx="0" cy="0" r="5"/>
	</g>
	<g transform="matrix(0.3,0,0,0.3,304,645.7) translate(225,68)">
		<circle class="st8" cx="0" cy="0" r="5"/>
		<circle class="st11" cx="0" cy="0" r="5"/>
		<circle class="st12" cx="0" cy="0" r="5"/>
	</g>
	<g transform="matrix(0.3,0,0,0.3,371.5,666.1) translate(-178,81)">
		<circle class="st8" cx="0" cy="0" r="5"/>
		<circle class="st11" cx="0" cy="0" r="5"/>
		<circle class="st12" cx="0" cy="0" r="5"/>
	</g>
	<g transform="matrix(0.3,0,0,0.3,318.1,690.4) translate(60,-215)">
		<circle class="st8" cx="0" cy="0" r="5"/>
		<circle class="st11" cx="0" cy="0" r="5"/>
		<circle class="st12" cx="0" cy="0" r="5"/>
	</g>
	<g transform="matrix(0.3,0,0,0.3,336.1,625.9) translate(75,260)">
		<circle class="st8" cx="0" cy="0" r="7"/>
		<circle class="st11" cx="0" cy="0" r="7"/>
		<circle class="st10" cx="0" cy="0" r="7"/>
	</g>
	<g transform="matrix(0.3,0,0,0.3,358.6,703.9) translate(-409,96)">
		<circle class="st8" cx="0" cy="0" r="50"/>
		<circle class="st11" cx="0" cy="0" r="50"/>
		<circle class="st10" cx="0" cy="0" r="50"/>
	</g>
	<g transform="matrix(0.3,0,0,0.3,235.9,732.7) translate(99,61)">
		<circle class="st8" cx="0" cy="0" r="5"/>
		<circle class="st11" cx="0" cy="0" r="5"/>
		<circle class="st12" cx="0" cy="0" r="5"/>
	</g>
	<g transform="matrix(0.3,0,0,0.3,265.6,751) translate(-65,-165)">
		<circle class="st8" cx="0" cy="0" r="5"/>
		<circle class="st11" cx="0" cy="0" r="5"/>
		<circle class="st12" cx="0" cy="0" r="5"/>
	</g>
	<g transform="matrix(0.3,0,0,0.3,246.1,701.5) translate(-138,-30)">
		<circle class="st8" cx="0" cy="0" r="43"/>
		<circle class="st11" cx="0" cy="0" r="43"/>
		<circle class="st10" cx="0" cy="0" r="43"/>
	</g>
	<g transform="matrix(0.3,0,0,0.3,204.7,692.5) translate(-64,-106)">
		<circle class="st8" cx="0" cy="0" r="17"/>
		<circle class="st11" cx="0" cy="0" r="17"/>
		<circle class="st10" cx="0" cy="0" r="17"/>
	</g>
	<g transform="matrix(0.3,0,0,0.3,185.5,660.7) translate(41,306)">
		<circle class="st8" cx="0" cy="0" r="5"/>
		<circle class="st11" cx="0" cy="0" r="5"/>
		<circle class="st12" cx="0" cy="0" r="5"/>
	</g>
	<g transform="matrix(0.3,0,0,0.3,197.8,752.5) translate(127,133)">
		<circle class="st8" cx="0" cy="0" r="5"/>
		<circle class="st11" cx="0" cy="0" r="5"/>
		<circle class="st12" cx="0" cy="0" r="5"/>
	</g>
	<g transform="matrix(0.3,0,0,0.3,235.9,792.4) translate(-64,84)">
		<circle class="st8" cx="0" cy="0" r="5"/>
		<circle class="st11" cx="0" cy="0" r="5"/>
		<circle class="st12" cx="0" cy="0" r="5"/>
	</g>
	<g transform="matrix(0.3,0,0,0.3,216.7,817.6) translate(-152,173)">
		<circle class="st8" cx="0" cy="0" r="11"/>
		<circle class="st11" cx="0" cy="0" r="11"/>
		<circle class="st10" cx="0" cy="0" r="11"/>
	</g>
	<g transform="matrix(0.3,0,0,0.3,171.1,869.5) translate(-90,101)">
		<circle class="st8" cx="0" cy="0" r="50"/>
		<circle class="st11" cx="0" cy="0" r="50"/>
		<circle class="st10" cx="0" cy="0" r="50"/>
	</g>
	<g transform="matrix(0.3,0,0,0.3,144.1,899.8) translate(-138,30)">
		<circle class="st8" cx="0" cy="0" r="29"/>
		<circle class="st11" cx="0" cy="0" r="29"/>
		<circle class="st10" cx="0" cy="0" r="29"/>
	</g>
	<g transform="matrix(0.3,0,0,0.3,102.7,908.8) translate(130,89)">
		<circle class="st8" cx="0" cy="0" r="5"/>
		<circle class="st11" cx="0" cy="0" r="5"/>
		<circle class="st12" cx="0" cy="0" r="5"/>
	</g>
	<g transform="matrix(0.3,0,0,0.3,141.7,935.5) translate(457,-280)">
		<circle class="st8" cx="0" cy="0" r="5"/>
		<circle class="st11" cx="0" cy="0" r="5"/>
		<circle class="st12" cx="0" cy="0" r="5"/>
	</g>
	<g transform="matrix(0.3,0,0,0.3,278.8,851.5) translate(79,108)">
		<circle class="st8" cx="0" cy="0" r="29"/>
		<circle class="st11" cx="0" cy="0" r="29"/>
		<circle class="st10" cx="0" cy="0" r="29"/>
	</g>
	<g transform="matrix(0.3,0,0,0.3,302.5,883.9) translate(98,-13)">
		<circle class="st8" cx="0" cy="0" r="5"/>
		<circle class="st11" cx="0" cy="0" r="5"/>
		<circle class="st12" cx="0" cy="0" r="5"/>
	</g>
	<g transform="matrix(0.3,0,0,0.3,331.9,880) translate(-138,106)">
		<circle class="st8" cx="0" cy="0" r="5"/>
		<circle class="st11" cx="0" cy="0" r="5"/>
		<circle class="st12" cx="0" cy="0" r="5"/>
	</g>
	<g transform="matrix(0.3,0,0,0.3,290.5,911.8) translate(177,72)">
		<circle class="st8" cx="0" cy="0" r="5"/>
		<circle class="st11" cx="0" cy="0" r="5"/>
		<circle class="st12" cx="0" cy="0" r="5"/>
	</g>
	<g transform="matrix(0.3,0,0,0.3,343.6,933.4) translate(53,199)">
		<circle class="st8" cx="0" cy="0" r="11"/>
		<circle class="st11" cx="0" cy="0" r="11"/>
		<circle class="st10" cx="0" cy="0" r="11"/>
	</g>
	<g transform="matrix(0.3,0,0,0.3,359.5,993.1) translate(186,-118)">
		<circle class="st8" cx="0" cy="0" r="23"/>
		<circle class="st11" cx="0" cy="0" r="23"/>
		<circle class="st10" cx="0" cy="0" r="23"/>
	</g>
	<g transform="matrix(0.3,0,0,0.3,415.3,957.7) translate(-956,-766)">
		<circle class="st8" cx="0" cy="0" r="11"/>
		<circle class="st11" cx="0" cy="0" r="11"/>
		<circle class="st10" cx="0" cy="0" r="11"/>
	</g>
	<g transform="matrix(0.3,0,0,0.3,128.5,727.9) translate(-20,-88)">
		<circle class="st8" cx="0" cy="0" r="5"/>
		<circle class="st11" cx="0" cy="0" r="5"/>
		<circle class="st12" cx="0" cy="0" r="5"/>
	</g>
	<g transform="matrix(0.3,0,0,0.3,122.5,701.5) translate(-71,104)">
		<circle class="st8" cx="0" cy="0" r="5"/>
		<circle class="st11" cx="0" cy="0" r="5"/>
		<circle class="st12" cx="0" cy="0" r="5"/>
	</g>
	<g transform="matrix(0.3,0,0,0.3,101.2,732.7) translate(-114,-54)">
		<circle class="st8" cx="0" cy="0" r="7"/>
		<circle class="st11" cx="0" cy="0" r="7"/>
		<circle class="st10" cx="0" cy="0" r="7"/>
	</g>
	<g transform="matrix(0.3,0,0,0.3,67,716.5) translate(-90,-14)">
		<circle class="st8" cx="0" cy="0" r="9"/>
		<circle class="st11" cx="0" cy="0" r="9"/>
		<circle class="st10" cx="0" cy="0" r="9"/>
	</g>
	<g transform="matrix(0.3,0,0,0.3,40,712.3) translate(287,143)">
		<circle class="st8" cx="0" cy="0" r="5"/>
		<circle class="st11" cx="0" cy="0" r="5"/>
		<circle class="st12" cx="0" cy="0" r="5"/>
	</g>
	<g transform="matrix(0.3,0,0,0.3,126.1,755.2) translate(12,-1602)">
		<circle class="st8" cx="0" cy="0" r="5"/>
		<circle class="st11" cx="0" cy="0" r="5"/>
		<circle class="st12" cx="0" cy="0" r="5"/>
	</g>
	<g transform="matrix(1,0,0,1,-31.4,-231.8) translate(31.4,1274.8)">
		<circle class="st9" cx="63" cy="-666" r="8"/>
		<circle class="st25" cx="63" cy="-666" r="8"/>
		<text transform="matrix(1 0 0 1 75 -662)" class="st6 st26">5</text>
		<circle class="st14" cx="63" cy="-640" r="8"/>
		<circle class="st25" cx="63" cy="-640" r="8"/>
		<text transform="matrix(1 0 0 1 75 -636)" class="st6 st26">8</text>
		<circle class="st13" cx="63" cy="-614" r="8"/>
		<circle class="st25" cx="63" cy="-614" r="8"/>
		<text transform="matrix(1 0 0 1 75 -610)" class="st6 st26">22</text>
		<circle class="st23" cx="63" cy="-588" r="8"/>
		<circle class="st25" cx="63" cy="-588" r="8"/>
		<text transform="matrix(1 0 0 1 75 -584)" class="st6 st26">239</text>
		<circle class="st20" cx="63" cy="-562" r="8"/>
		<circle class="st25" cx="63" cy="-562" r="8"/>
		<text transform="matrix(1 0 0 1 75 -558)" class="st6 st26">247</text>
		<circle class="st18" cx="63" cy="-536" r="8"/>
		<circle class="st25" cx="63" cy="-536" r="8"/>
		<text transform="matrix(1 0 0 1 75 -532)" class="st6 st26">250</text>
		<circle class="st17" cx="63" cy="-510" r="8"/>
		<circle class="st25" cx="63" cy="-510" r="8"/>
		<text transform="matrix(1 0 0 1 75 -506)" class="st6 st26">254</text>
		<circle class="st24" cx="63" cy="-485" r="8"/>
		<circle class="st25" cx="63" cy="-485" r="8"/>
		<text transform="matrix(1 0 0 1 75 -481)" class="st6 st26">7844</text>
		<circle class="st21" cx="63" cy="-459" r="8"/>
		<circle class="st25" cx="63" cy="-459" r="8"/>
		<text transform="matrix(1 0 0 1 75 -455)" class="st6 st26">7842</text>
		<circle class="st11" cx="63" cy="-433" r="8"/>
		<circle class="st25" cx="63" cy="-433" r="8"/>
		<text transform="matrix(1 0 0 1 75 -429)" class="st6 st26">other</text>
	</g>
</g>
<rect x="37.1" y="1144.7" class="st27" width="286.3" height="1.1"/>
<text transform="matrix(1 0 0 1 55.4902 358.8237)" class="st6 st28">Sequence types (n=81)</text>
<text transform="matrix(1 0 0 1 455.4172 44.4685)" class="st13 st6 st26">CC22</text>
<text transform="matrix(1 0 0 1 321.1606 194.8198)" class="st9 st6 st26">CC5</text>
<text transform="matrix(1 0 0 1 453.8662 300.9844)" class="st11 st6 st26">CC1</text>
<text transform="matrix(1 0 0 1 669.5835 379.4785)" class="st14 st6 st26">CC8</text>
<text transform="matrix(1 0 0 1 331.7842 583.3369)" class="st11 st6 st26">CC45</text>
<text transform="matrix(1 0 0 1 203.7021 621.1367)" class="st11 st6 st26">CC30</text>
</svg>
